<svg id="Layer_1" data-name="Layer 1" xmlns="http://www.w3.org/2000/svg" xmlns:xlink="http://www.w3.org/1999/xlink" viewBox="0 0 901.5 476.85"><defs><style>.cls-1{fill:#686669;}.cls-2{fill:url(#Orange);}.cls-3{fill:url(#Orange-2);}.cls-4{fill:url(#Orange-3);}.cls-5{fill:none;stroke:#686669;stroke-miterlimit:10;stroke-width:2px;}.cls-6{font-size:131.04px;fill:#696867;font-family:CooperHewitt-Book, CooperHewitt Book;letter-spacing:0.5em;}.cls-7{letter-spacing:0.52em;}.cls-8{letter-spacing:0.5em;}.cls-9{letter-spacing:0.49em;}.cls-10{letter-spacing:0.5em;}</style><linearGradient id="Orange" x1="211.04" y1="73.3" x2="330.85" y2="73.3" gradientUnits="userSpaceOnUse"><stop offset="0" stop-color="#f3944c"/><stop offset="0.5" stop-color="#ed6d05"/><stop offset="1" stop-color="#d25917"/></linearGradient><linearGradient id="Orange-2" x1="383.92" y1="236.16" x2="503.73" y2="236.16" xlink:href="#Orange"/><linearGradient id="Orange-3" x1="284.08" y1="317.88" x2="471.97" y2="317.88" xlink:href="#Orange"/></defs><title>logo</title><path class="cls-1" d="M278.57,157.47a11.07,11.07,0,0,0-1.31-.13h-239A11.27,11.27,0,0,0,27,168.57v53.2A11.27,11.27,0,0,0,38.26,233h72.3V467.87a11.26,11.26,0,0,0,11.23,11.23h62.57a11.27,11.27,0,0,0,11.23-11.23V233h30.21C225.1,212.66,230.13,172,278.57,157.47Z" transform="translate(-27.03 -153.82)"/><circle class="cls-2" cx="270.94" cy="73.3" r="59.9"/><circle class="cls-3" cx="443.82" cy="236.16" r="59.9"/><path class="cls-4" d="M364.63,467.88c-2.07,5.82-8.82,10.57-15,10.56l-57.65-.1c-6.18,0-9.42-4.73-7.2-10.5l115.39-300c2.22-5.77,9.09-10.49,15.26-10.49l48.46,0c6.18,0,9.54,4.76,7.47,10.58Z" transform="translate(-27.03 -153.82)"/><path class="cls-1" d="M906.68,464.38,802.78,310.22l98.29-145.83c2.07-5.82-1.29-10.58-7.47-10.58l-68.67,0c-6.18,0-13,4.72-15.26,10.49L756.81,242l-52.33-77.64c-2.07-5.82-8.82-10.57-15-10.56l-71.13.1c-6.18,0-9.41,4.73-7.2,10.5l99.22,145.84L605.55,464.35c-2.22,5.77,1,10.49,7.2,10.5l71.13.1c6.18,0,12.92-4.74,15-10.56l57.91-85.92,58.5,86c2.22,5.77,9.08,10.49,15.26,10.49l68.67,0C905.39,475,908.75,470.2,906.68,464.38Z" transform="translate(-27.03 -153.82)"/><path class="cls-1" d="M596,467.87,482.58,173.73,443.4,275.38l15.47,44.54a71.08,71.08,0,0,1,46,132.5l5.39,15.52c2.22,5.77,9.09,10.49,15.26,10.49l63.05,0C594.75,478.45,598.1,473.69,596,467.87Z" transform="translate(-27.03 -153.82)"/><line class="cls-5" x1="73.56" y1="338.1" x2="880.26" y2="340.72"/><path class="cls-5" d="M345.15,612.12c186.85.09,374.85.09,562.14-.11" transform="translate(-27.03 -153.82)"/><path class="cls-5" d="M100.59,612q19.86.26,39.72.07" transform="translate(-27.03 -153.82)"/><text class="cls-6" transform="translate(61.94 444.09)">se<tspan class="cls-7" x="248.58" y="0">r</tspan><tspan class="cls-8" x="360.22" y="0">vi</tspan><tspan class="cls-9" x="584.95" y="0">c</tspan><tspan class="cls-10" x="708.39" y="0">e</tspan></text></svg>